<svg width="18" height="18" viewBox="0 0 18 18" fill="none" xmlns="http://www.w3.org/2000/svg">
<path fill-rule="evenodd" clip-rule="evenodd" d="M9 10C11.7625 10 14 7.7625 14 5C14 2.2375 11.7625 0 9 0C6.2375 0 4 2.2375 4 5C4 7.7625 6.2375 10 9 10ZM13 5C13 7.21 11.21 9 9 9C6.79 9 5 7.21 5 5C5 2.79 6.79 1 9 1C11.21 1 13 2.79 13 5ZM11.5175 10.937L10 15.272V15L9.7125 12.9895C9.80428 12.9702 9.88877 12.9254 9.95632 12.8603C10.0239 12.7953 10.0718 12.7125 10.0945 12.6215L10.3445 11.6215C10.363 11.5478 10.3644 11.4709 10.3487 11.3966C10.333 11.3223 10.3005 11.2525 10.2538 11.1926C10.2071 11.1327 10.1474 11.0842 10.0791 11.0508C10.0109 11.0175 9.93596 11.0001 9.86 11H8.141C8.06505 11 7.99011 11.0173 7.92185 11.0507C7.8536 11.084 7.79383 11.1324 7.74708 11.1922C7.70033 11.2521 7.66783 11.3218 7.65205 11.3961C7.63627 11.4704 7.63762 11.5473 7.656 11.621L7.906 12.621C7.92867 12.7121 7.97651 12.795 8.04407 12.8601C8.11162 12.9253 8.19616 12.9701 8.288 12.9895L8.007 14.9555L6.48 10.9315L6.47 10.91C6.39621 10.7585 6.27294 10.6368 6.12057 10.5648C5.96819 10.4929 5.79584 10.4752 5.632 10.5145C5.4615 10.556 5.2735 10.5995 5.075 10.6465C4.6065 10.756 4.078 10.8795 3.577 11.019C2.8705 11.216 2.1385 11.464 1.63 11.798C0.6935 12.413 0 13.2265 0 14.25V18H18V14.25C18 13.2265 17.307 12.4125 16.37 11.798C15.862 11.464 15.13 11.216 14.4235 11.019C13.9268 10.8846 13.4273 10.7604 12.9255 10.6465C12.7396 10.6033 12.554 10.5593 12.3685 10.5145C12.2047 10.4753 12.0325 10.4931 11.8802 10.565C11.728 10.6369 11.6048 10.7586 11.531 10.91L11.5175 10.937ZM12.722 11.626L12.3655 11.542L10.4545 17H17V14.25C17 13.727 16.648 13.1765 15.8215 12.634C15.4545 12.3925 14.8565 12.1775 14.1555 11.9825C13.6804 11.8537 13.2021 11.7349 12.722 11.626ZM5.641 11.5405L7.7125 17H1V14.25C1 13.727 1.352 13.1765 2.1785 12.634C2.5455 12.3925 3.1435 12.1775 3.8445 11.9825C4.31961 11.8536 4.79738 11.7347 5.2775 11.626L5.641 11.5405Z" fill="black"/>
</svg>
