<svg width="22" height="22" viewBox="0 0 22 22" fill="none" xmlns="http://www.w3.org/2000/svg">
<path d="M11 21L9 15H1L3 21H11ZM11 21H15M11 12V11.5C11 9.614 11 8.672 10.414 8.086C9.828 7.5 8.886 7.5 7 7.5C5.114 7.5 4.172 7.5 3.586 8.086C3 8.672 3 9.614 3 11.5V12M13 16.5H19C19.5304 16.5 20.0391 16.7107 20.4142 17.0858C20.7893 17.4609 21 17.9696 21 18.5V19C21 19.5304 20.7893 20.0391 20.4142 20.4142C20.0391 20.7893 19.5304 21 19 21H18M18 12C18 12.5304 17.7893 13.0391 17.4142 13.4142C17.0391 13.7893 16.5304 14 16 14C15.4696 14 14.9609 13.7893 14.5858 13.4142C14.2107 13.0391 14 12.5304 14 12C14 11.4696 14.2107 10.9609 14.5858 10.5858C14.9609 10.2107 15.4696 10 16 10C16.5304 10 17.0391 10.2107 17.4142 10.5858C17.7893 10.9609 18 11.4696 18 12ZM9 3C9 3.53043 8.78929 4.03914 8.41421 4.41421C8.03914 4.78929 7.53043 5 7 5C6.46957 5 5.96086 4.78929 5.58579 4.41421C5.21071 4.03914 5 3.53043 5 3C5 2.46957 5.21071 1.96086 5.58579 1.58579C5.96086 1.21071 6.46957 1 7 1C7.53043 1 8.03914 1.21071 8.41421 1.58579C8.78929 1.96086 9 2.46957 9 3Z" stroke="black" stroke-linecap="round" stroke-linejoin="round"/>
</svg>
