<svg width="18" height="18" viewBox="0 0 18 18" fill="none" xmlns="http://www.w3.org/2000/svg">
<path fill-rule="evenodd" clip-rule="evenodd" d="M0 0V14H11.1935V13H1V1H14.5V2.06H15.5V0H0ZM15.5 5C15.5 5.26522 15.3946 5.51957 15.2071 5.70711C15.0196 5.89464 14.7652 6 14.5 6C14.2348 6 13.9804 5.89464 13.7929 5.70711C13.6054 5.51957 13.5 5.26522 13.5 5C13.5 4.73478 13.6054 4.48043 13.7929 4.29289C13.9804 4.10536 14.2348 4 14.5 4C14.7652 4 15.0196 4.10536 15.2071 4.29289C15.3946 4.48043 15.5 4.73478 15.5 5ZM16.5 5C16.5 5.53043 16.2893 6.03914 15.9142 6.41421C15.5391 6.78929 15.0304 7 14.5 7C13.9696 7 13.4609 6.78929 13.0858 6.41421C12.7107 6.03914 12.5 5.53043 12.5 5C12.5 4.46957 12.7107 3.96086 13.0858 3.58579C13.4609 3.21071 13.9696 3 14.5 3C15.0304 3 15.5391 3.21071 15.9142 3.58579C16.2893 3.96086 16.5 4.46957 16.5 5Z" fill="black"/>
<path fill-rule="evenodd" clip-rule="evenodd" d="M12.0465 7.915C12.3253 7.64881 12.696 7.50019 13.0815 7.5H15.1225C15.8545 7.5 16.536 7.749 17.061 8.245C17.566 8.722 17.829 9.3335 17.9365 9.913C18.1055 10.824 17.9305 11.8195 17.5 12.702V16.75C17.5 17.0637 17.3821 17.3659 17.1696 17.5967C16.9571 17.8275 16.6657 17.9699 16.3531 17.9958C16.0405 18.0217 15.7295 17.9291 15.482 17.7363C15.2345 17.5436 15.0685 17.2649 15.017 16.9555L14.75 15.3535L14.483 16.9555C14.4314 17.2649 14.2654 17.5436 14.0179 17.7363C13.7704 17.9291 13.4595 18.0217 13.1469 17.9958C12.8343 17.9699 12.5428 17.8275 12.3303 17.5967C12.1179 17.3659 12 17.0637 12 16.75V12.0465C11.7719 12.1782 11.5133 12.2475 11.25 12.2475H8.69897C8.30115 12.2475 7.91962 12.0895 7.63831 11.8082C7.35701 11.5269 7.19897 11.1453 7.19897 10.7475C7.19897 10.3497 7.35701 9.96814 7.63831 9.68684C7.91962 9.40554 8.30115 9.2475 8.69897 9.2475H10.649L12.0465 7.915ZM13 13.7375V16.75C13.0001 16.8126 13.0238 16.8729 13.0663 16.9189C13.1088 16.9649 13.167 16.9933 13.2294 16.9985C13.2918 17.0036 13.3539 16.9852 13.4033 16.9467C13.4528 16.9083 13.486 16.8527 13.4965 16.791L14.018 13.663C14.0374 13.5462 14.0976 13.4402 14.1879 13.3636C14.2781 13.2871 14.3926 13.2451 14.511 13.245H14.989C15.1073 13.2451 15.2218 13.2871 15.3121 13.3636C15.4024 13.4402 15.4626 13.5462 15.482 13.663L16.0035 16.791C16.0139 16.8527 16.0472 16.9083 16.0966 16.9467C16.1461 16.9852 16.2081 17.0036 16.2705 16.9985C16.333 16.9933 16.3912 16.9649 16.4337 16.9189C16.4761 16.8729 16.4998 16.8126 16.5 16.75V12.5835C16.5 12.5035 16.5192 12.4246 16.556 12.3535C16.942 11.608 17.0825 10.7915 16.9535 10.0955C16.875 9.6725 16.6915 9.2715 16.3745 8.972C16.051 8.6665 15.622 8.5 15.1225 8.5H13.082C12.9535 8.5 12.8295 8.5495 12.7365 8.638L11.1945 10.109C11.1015 10.1978 10.978 10.2474 10.8495 10.2475H8.69897C8.56637 10.2475 8.43919 10.3002 8.34542 10.3939C8.25165 10.4877 8.19897 10.6149 8.19897 10.7475C8.19897 10.8801 8.25165 11.0073 8.34542 11.1011C8.43919 11.1948 8.56637 11.2475 8.69897 11.2475H11.25C11.3785 11.2474 11.502 11.1978 11.595 11.109L12.155 10.575C12.2258 10.5075 12.3149 10.4622 12.4113 10.4448C12.5076 10.4275 12.6069 10.4388 12.6969 10.4773C12.7868 10.5158 12.8635 10.58 12.9174 10.6617C12.9713 10.7434 13 10.8391 13 10.937V13.7375Z" fill="black"/>
</svg>
